<svg xmlns="http://www.w3.org/2000/svg" height="100%" viewBox="0 0 81.271208 82.848774" width="100%" version="1.1" y="0px" x="0px"><g id="g3" transform="translate(-401.3 -239.99)"><path d="m473.77 286.2c5.996-1.271 9.827-7.15 8.559-13.146l-34.448 4.234-0.82 11.163 26.709-2.251z"/><path d="m432.13 298.43c-0.047 0.234-0.042 0.471-0.071 0.709-0.923 0.533-1.804 1.153-2.591 1.943-4.979 4.977-4.979 13.044 0 18.021 4.977 4.978 13.047 4.981 18.024 0.004s4.978-13.053 0.001-18.03c-1.483-1.484-3.259-2.474-5.123-3.069l0.68-5.518 2.035-16.37 4.447-35.886c-5.991-1.274-11.881 2.554-13.152 8.544l-2.282 26.655-1.401 16.407-0.567 6.59zm10.221 7.789c2.138 2.139 2.138 5.607-0.003 7.746-2.139 2.14-5.605 2.14-7.744 0.002-2.139-2.139-2.139-5.605 0.002-7.744 2.139-2.143 5.606-2.143 7.745-0.004zm-5.41-21.952c-1.175-1.172-1.175-3.078 0-4.25 1.177-1.177 3.08-1.176 4.253-0.001 1.176 1.176 1.179 3.08 0.002 4.256-1.175 1.172-3.078 1.172-4.255-0.005z"/><path d="m423.06 294.67c1.305-1.305 2.244-2.822 2.865-4.44l4.339-0.368 0.768-10.509-5.597 0.694c-0.605-1.221-1.355-2.389-2.373-3.406-4.982-4.981-13.049-4.973-18.027 0.004s-4.979 13.04 0.001 18.022c4.981 4.979 13.045 4.981 18.024 0.003zm-12.889-5.142c-2.138-2.138-2.143-5.608-0.001-7.749 2.14-2.14 5.61-2.137 7.749 0.001 2.138 2.139 2.141 5.609 0.002 7.75-2.141 2.14-5.611 2.138-7.75-0.002z"/></g></svg>
