<svg xmlns="http://www.w3.org/2000/svg" viewBox="0 0 102 102" version="1.1" y="0px" x="0px"><path d="m40.719 90.285-7.415 7.3891c-4.469 4.456-11.687 4.426-16.126-0.051l-12.863-12.979c-4.4402-4.4786-4.4169-11.718 0.0505-16.171l7.4163-7.3891c0.86786-0.86251 2.0306-1.1038 2.5997-0.53049l26.884 27.13c0.56521 0.57199 0.31948 1.7393-0.5471 2.6018zm-22.017-36.289 43.743-43.593 0.027 0.028 38.528-9.431-9.644 38.577l0.02712 0.02725-43.745 43.593c-0.86916 0.8677-2.0345 1.1038-2.601 0.53178l-26.883-27.127c-0.5678-0.57329-0.32465-1.7419 0.5471-2.6057zm47.841-27.115-2.052-2.054-35.967 36.113 2.05 2.056 35.969-36.115zm10.488 10.502-2.054-2.054-35.968 36.116 2.051 2.053 35.971-36.115zm-10.412-24.116c-0.46693 0.14526-0.89504 0.3865-1.2455 0.7354-1.5366 1.537-1.1046 4.4786 0.96745 6.5707 1.9233 1.9403 4.5825 2.4682 6.1863 1.3126-1.1628 1.6031-0.65445 4.271 1.2688 6.2114 1.9259 1.9442 4.5928 2.4695 6.1954 1.3048-1.1705 1.5992-0.66481 4.2788 1.2649 6.2218 2.0733 2.0921 5.0054 2.546 6.5471 1.0091 0.35051-0.3489 0.59108-0.77432 0.7437-1.2425l0.01937 0.01949 4.8877-19.555-7.3167-7.3813-19.531 4.7808 0.013 0.01296z"/></svg>