<?xml version="1.0" encoding="UTF-8" standalone="no"?>
<svg
   xmlns:dc="http://purl.org/dc/elements/1.1/"
   xmlns:cc="http://creativecommons.org/ns#"
   xmlns:rdf="http://www.w3.org/1999/02/22-rdf-syntax-ns#"
   xmlns:svg="http://www.w3.org/2000/svg"
   xmlns="http://www.w3.org/2000/svg"
   id="svg2"
   x="0px"
   y="0px"
   version="1.1"
   viewBox="0 0 90 90"
   xml:space="preserve"
   enable-background="new 0 0 90 90"><metadata
     id="metadata10"><rdf:RDF><cc:Work
         rdf:about=""><dc:format>image/svg+xml</dc:format><dc:type
           rdf:resource="http://purl.org/dc/dcmitype/StillImage" /><dc:title></dc:title></cc:Work></rdf:RDF></metadata><defs
     id="defs8" /><path
     id="path4"
     d="m37.051 75.289-5.733 5.697c-3.455 3.435-9.036 3.416-12.468-0.039l-9.945-10.007c-3.433-3.453-3.415-9.035 0.039-12.468l5.734-5.697c0.671-0.665 1.57-0.851 2.01-0.409l20.786 20.917c0.437 0.441 0.247 1.341-0.423 2.006zm-17.023-27.979 33.821-33.61 0.021 0.021 29.788-7.271-7.456 29.743 0.021 0.021-33.822 33.61c-0.672 0.669-1.573 0.851-2.011 0.41l-20.785-20.915c-0.439-0.442-0.251-1.343 0.423-2.009zm36.989-20.906-1.586-1.583-27.809 27.843 1.585 1.585 27.81-27.845zm8.109 8.097-1.588-1.583-27.809 27.845 1.586 1.583 27.811-27.845zm-8.05-18.593c-0.361 0.112-0.692 0.298-0.963 0.567-1.188 1.185-0.854 3.453 0.748 5.066 1.487 1.496 3.543 1.903 4.783 1.012-0.899 1.236-0.506 3.293 0.981 4.789 1.489 1.499 3.551 1.904 4.79 1.006-0.905 1.233-0.514 3.299 0.978 4.797 1.603 1.613 3.87 1.963 5.062 0.778 0.271-0.269 0.457-0.597 0.575-0.958l0.015 0.015 3.779-15.077-5.657-5.691-15.101 3.686 0.01 0.01z" /></svg>