<svg xmlns="http://www.w3.org/2000/svg" height="100%" viewBox="0 0 75.763495 74.26437" width="100%" version="1.1" y="0px" x="0px"><g transform="translate(-405.43 -242.95)"><polygon points="455.52 252.85 465.43 242.95 481.19 247.46 466.04 262.6 465.5 258.64 475.11 249.03 466.35 246.53 459.6 253.28"/><path d="m428.53 313.25c0.724-0.725 1.34-1.517 1.866-2.349 0.043-0.051 0.088-0.113 0.132-0.193 0.079-0.136 0.153-0.275 0.229-0.414 0.283-0.507 0.544-1.023 0.758-1.558 1.734-3.765 3.889-9.115 15.837-21.064l16.054-16.054c0.31-0.309 0.515-0.918 0.457-1.353l-1.726-12.746c-0.058-0.433-0.463-0.826-0.898-0.871l-12.244-1.277c-0.435-0.045-1.044 0.172-1.354 0.481l-38.252 38.251v0.001h-0.001c-5.286 5.286-5.286 13.858 0 19.145 5.285 5.287 13.856 5.287 19.142 0.001zm-2.393-16.374-4.504-4.506c-0.309-0.309-0.309-0.817 0-1.126l20.329-20.331c0.31-0.309 0.909-0.477 1.335-0.37l7.465 1.867c0.426 0.106 0.52 0.446 0.21 0.756l-23.711 23.709c-0.309 0.311-0.816 0.311-1.124 0.001z"/><path d="m434.35 281.91c-0.309-0.31-0.309-0.818 0-1.127l4.507-4.503c0.309-0.311 0.815-0.311 1.124 0l2.254 2.251c0.31 0.309 0.31 0.816 0 1.126l-4.505 4.505c-0.31 0.309-0.817 0.309-1.128 0l-2.252-2.252z"/></g></svg>
