<svg xmlns="http://www.w3.org/2000/svg" height="100%" viewBox="0 0 39.080002 39.081001" width="100%" version="1.1" y="0px" x="0px" xmlns:cc="http://creativecommons.org/ns#" xmlns:dc="http://purl.org/dc/elements/1.1/"><path d="m19.54 0c-10.792 0-19.54 8.747-19.54 19.541 0 10.793 8.748 19.54 19.54 19.54 10.793 0 19.54-8.747 19.54-19.54 0-10.794-8.747-19.541-19.54-19.541zm0 37.399c-9.863 0-17.858-7.995-17.858-17.858 0-9.864 7.995-17.859 17.858-17.859s17.858 7.995 17.858 17.859c0 9.863-7.995 17.858-17.858 17.858z"/><path d="m24.011 16.656h-3.277v-2.393c0-0.733 0.758-0.903 1.112-0.903h2.118v-3.228l-2.427-0.014c-3.312 0-4.066 2.408-4.066 3.95v2.587h-2.403v3.326h2.403v8.98h3.263v-8.98h2.771l0.506-3.325z"/></svg>
