<svg xmlns="http://www.w3.org/2000/svg" viewBox="0 0 41 41" version="1.1" y="0px" x="0px"><path d="m20.5 1c-10.77 0-19.5 8.7289-19.5 19.5s8.7301 19.5 19.5 19.5c10.771 0 19.5-8.729 19.5-19.5s-8.729-19.5-19.5-19.5zm0 37.321c-9.8428 0-17.821-7.9784-17.821-17.821 0-9.8436 7.9786-17.822 17.821-17.822 9.8428 0 17.821 7.9784 17.821 17.822 0 9.8426-7.9786 17.821-17.821 17.821z"/><path d="m25.011 17.575h-3.277v-2.393c0-0.733 0.758-0.903 1.112-0.903h2.118v-3.228l-2.427-0.014c-3.312 0-4.066 2.408-4.066 3.95v2.587h-2.403v3.326h2.403v8.98h3.263v-8.98h2.771l0.506-3.325z"/></svg>
