<?xml version="1.0" encoding="UTF-8" standalone="no"?>
<svg
   xmlns:dc="http://purl.org/dc/elements/1.1/"
   xmlns:cc="http://creativecommons.org/ns#"
   xmlns:rdf="http://www.w3.org/1999/02/22-rdf-syntax-ns#"
   xmlns:svg="http://www.w3.org/2000/svg"
   xmlns="http://www.w3.org/2000/svg"
   xmlns:sodipodi="http://sodipodi.sourceforge.net/DTD/sodipodi-0.dtd"
   xmlns:inkscape="http://www.inkscape.org/namespaces/inkscape"
   enable-background="new 0 0 40 40"
   xml:space="preserve"
   viewBox="0 0 40 40"
   version="1.1"
   y="0px"
   x="0px"
   id="svg2"
   inkscape:version="0.91 r13725"
   sodipodi:docname="facebook_inverse.svg"><metadata
     id="metadata14"><rdf:RDF><cc:Work
         rdf:about=""><dc:format>image/svg+xml</dc:format><dc:type
           rdf:resource="http://purl.org/dc/dcmitype/StillImage" /><dc:title></dc:title></cc:Work></rdf:RDF></metadata><defs
     id="defs12" /><sodipodi:namedview
     pagecolor="#ffffff"
     bordercolor="#666666"
     borderopacity="1"
     objecttolerance="10"
     gridtolerance="10"
     guidetolerance="10"
     inkscape:pageopacity="0"
     inkscape:pageshadow="2"
     inkscape:window-width="1920"
     inkscape:window-height="1016"
     id="namedview10"
     showgrid="false"
     inkscape:zoom="5.9"
     inkscape:cx="20.338983"
     inkscape:cy="20"
     inkscape:window-x="0"
     inkscape:window-y="27"
     inkscape:window-maximized="1"
     inkscape:current-layer="g4" /><g
     transform="translate(-28.811 -29.46)"
     id="g4"><path
       d="M 20 0.45898438 C 9.208 0.45898438 0.4609375 9.206 0.4609375 20 C 0.4609375 30.793 9.208 39.539062 20 39.539062 C 30.793 39.539062 39.539062 30.793 39.539062 20 C 39.539062 9.206 30.793 0.45898438 20 0.45898438 z M 21.996094 10.576172 L 24.423828 10.591797 L 24.423828 13.818359 L 22.306641 13.818359 C 21.952641 13.818359 21.193359 13.989656 21.193359 14.722656 L 21.193359 17.115234 L 24.470703 17.115234 L 23.964844 20.439453 L 21.193359 20.439453 L 21.193359 29.419922 L 17.931641 29.419922 L 17.931641 20.439453 L 15.527344 20.439453 L 15.527344 17.113281 L 17.931641 17.113281 L 17.931641 14.527344 C 17.931641 12.985344 18.684094 10.576172 21.996094 10.576172 z "
       transform="translate(28.811,29.46)"
       id="path6" /></g></svg>