<svg xmlns:rdf="http://www.w3.org/1999/02/22-rdf-syntax-ns#" xmlns="http://www.w3.org/2000/svg" enable-background="new 0 0 40 40" xml:space="preserve" viewBox="0 0 40 40" version="1.1" y="0px" x="0px" xmlns:cc="http://creativecommons.org/ns#" xmlns:dc="http://purl.org/dc/elements/1.1/"><g transform="translate(-28.811 -29.46)"><path d="m48.811 29.919c-10.792 0-19.54 8.747-19.54 19.541 0 10.793 8.748 19.54 19.54 19.54 10.793 0 19.54-8.747 19.54-19.54 0-10.794-8.747-19.541-19.54-19.541zm0 37.399c-9.863 0-17.858-7.995-17.858-17.858 0-9.864 7.995-17.859 17.858-17.859s17.858 7.995 17.858 17.859c0 9.863-7.995 17.858-17.858 17.858z"/><path style="fill:#231f20" d="m53.282 46.575h-3.277v-2.393c0-0.733 0.758-0.903 1.112-0.903h2.118v-3.228l-2.427-0.014c-3.312 0-4.066 2.408-4.066 3.95v2.587h-2.403v3.326h2.403v8.98h3.263v-8.98h2.771l0.506-3.325z"/></g></svg>