<svg xmlns="http://www.w3.org/2000/svg" viewBox="0 0 102 102" version="1.1" y="0px" x="0px"><g transform="matrix(1.4424 0 0 1.4424 -309.05 -311.17)"><path d="m231.68 259.7-15.997 25.318 25.319-15.994-9.322-9.324zm52.381-43.056c-20.401-2.253-46.971 12.699-49.413 39.763l9.648 9.65c27.066-2.443 42.019-29.012 39.765-49.413zm-14.106 23.534c-2.605 2.603-6.826 2.603-9.431 0-2.604-2.604-2.604-6.824 0-9.428s6.825-2.604 9.431 0c2.602 2.604 2.602 6.824 0 9.428z"/><path d="m252.04 274.88c-0.271-0.961-1.216-3.264-2.036-5.2-2.336 1.482-5.039 2.771-8.143 3.66 0.194 0.956 0.583 3.166 0.222 3.89-0.434 0.866-5.707 4.249-11.348 7.102-0.649 0.327-0.159 1.514 0.561 1.415 8.997-1.245 14.06-3.205 17.116-4.565 2.203-0.982 4.475-3.317 3.628-6.302zm-28.56-16.26c0.723-0.361 2.931 0.03 3.889 0.223 0.888-3.104 2.178-5.808 3.659-8.144-1.935-0.819-4.241-1.765-5.199-2.037-2.988-0.846-5.321 1.427-6.301 3.628-1.359 3.056-3.318 8.119-4.566 17.116-0.098 0.72 1.087 1.211 1.414 0.561 2.853-5.639 6.236-10.913 7.104-11.347z"/></g></svg>
