<svg xmlns="http://www.w3.org/2000/svg" height="100%" viewBox="0 0 39.080002 39.081001" width="100%" version="1.1" y="0px" x="0px"><path d="m19.54 0c-10.792 0-19.54 8.747-19.54 19.541 0 10.793 8.748 19.54 19.54 19.54 10.793 0 19.54-8.747 19.54-19.54 0-10.794-8.747-19.541-19.54-19.541zm0 37.399c-9.863 0-17.858-7.995-17.858-17.858 0-9.864 7.995-17.859 17.858-17.859 9.864 0 17.858 7.995 17.858 17.859 0 9.863-7.994 17.858-17.858 17.858z"/><path d="m15.02 26.949h-3.524v-11.285h3.524v11.285zm-1.851-12.698h-0.027c-1.275 0-2.103-0.861-2.103-1.954 0-1.116 0.853-1.96 2.154-1.96s2.102 0.842 2.124 1.956c0 1.092-0.822 1.958-2.148 1.958zm15.96 12.698h-3.997v-5.838c0-1.531-0.627-2.574-2.003-2.574-1.05 0-1.635 0.704-1.909 1.383-0.101 0.242-0.083 0.582-0.083 0.922v6.107h-3.964s0.052-10.345 0-11.285h3.963v1.771c0.234-0.775 1.497-1.881 3.518-1.881 2.507 0 4.475 1.622 4.475 5.12v6.275z"/></svg>
