<?xml version="1.0" encoding="UTF-8" standalone="no"?>
<svg
   xmlns:dc="http://purl.org/dc/elements/1.1/"
   xmlns:cc="http://creativecommons.org/ns#"
   xmlns:rdf="http://www.w3.org/1999/02/22-rdf-syntax-ns#"
   xmlns:svg="http://www.w3.org/2000/svg"
   xmlns="http://www.w3.org/2000/svg"
   id="svg2"
   x="0px"
   y="0px"
   version="1.1"
   viewBox="0 0 40 40"
   xml:space="preserve"
   enable-background="new 0 0 40 40"><metadata
     id="metadata14"><rdf:RDF><cc:Work
         rdf:about=""><dc:format>image/svg+xml</dc:format><dc:type
           rdf:resource="http://purl.org/dc/dcmitype/StillImage" /><dc:title></dc:title></cc:Work></rdf:RDF></metadata><defs
     id="defs12" /><g
     id="g4"
     transform="translate(-5.5e-8 -1.2392)"><path
       id="path6"
       transform="translate(5.5e-8,1.2392)"
       d="M 20 0.45898438 C 9.208 0.45898438 0.4609375 9.206 0.4609375 20 C 0.4609375 30.793 9.208 39.541016 20 39.541016 C 30.793 39.541016 39.539063 30.793 39.539062 20 C 39.539062 9.206 30.793 0.45898437 20 0.45898438 z M 13.109375 10.796875 C 14.410375 10.796875 15.210422 11.637953 15.232422 12.751953 C 15.232422 13.843953 14.411938 14.710938 13.085938 14.710938 L 13.058594 14.710938 C 11.783594 14.710938 10.955078 13.848859 10.955078 12.755859 C 10.955078 11.639859 11.808375 10.796875 13.109375 10.796875 z M 24.570312 16.013672 C 27.077313 16.013672 29.044922 17.636766 29.044922 21.134766 L 29.044922 27.408203 L 25.048828 27.408203 L 25.048828 21.570312 C 25.048828 20.039313 24.420922 18.996094 23.044922 18.996094 C 21.994922 18.996094 21.410719 19.699906 21.136719 20.378906 C 21.035719 20.620906 21.052734 20.962734 21.052734 21.302734 L 21.052734 27.408203 L 17.089844 27.408203 C 17.089844 27.408203 17.141844 17.063047 17.089844 16.123047 L 21.052734 16.123047 L 21.052734 17.894531 C 21.286734 17.119531 22.549312 16.013672 24.570312 16.013672 z M 11.412109 16.123047 L 14.935547 16.123047 L 14.935547 27.408203 L 11.412109 27.408203 L 11.412109 16.123047 z " /></g></svg>