<svg xmlns="http://www.w3.org/2000/svg" viewBox="0 0 41 41" version="1.1" y="0px" x="0px"><path d="m20.5 1c-10.77 0-19.5 8.7289-19.5 19.5s8.7301 19.5 19.5 19.5c10.771 0 19.5-8.729 19.5-19.5s-8.729-19.5-19.5-19.5zm0 37.321c-9.8428 0-17.821-7.9784-17.821-17.821 0-9.8436 7.9786-17.822 17.821-17.822 9.8438 0 17.821 7.9784 17.821 17.822 0 9.8426-7.9776 17.821-17.821 17.821z"/><path d="m15.989 27.893h-3.5168v-11.262h3.5168v11.262zm-1.8472-12.672h-0.02694c-1.2724 0-2.0987-0.85922-2.0987-1.95 0-1.1137 0.85125-1.9559 2.1496-1.9559 1.2983 0 2.0977 0.84026 2.1197 1.9519 0 1.0897-0.82032 1.9539-2.1436 1.9539zm15.927 12.672h-3.9888v-5.8259c0-1.5278-0.62572-2.5687-1.9989-2.5687-1.0479 0-1.6317 0.70254-1.9051 1.3801-0.10079 0.2415-0.08283 0.58079-0.08283 0.92009v6.0943h-3.9559s0.05189-10.324 0-11.262h3.9549v1.7673c0.23352-0.77339 1.4939-1.8771 3.5108-1.8771 2.5019 0 4.4658 1.6186 4.4658 5.1094v6.262z"/></svg>
