<svg xmlns="http://www.w3.org/2000/svg" height="100%" width="100%" version="1.1" y="0px" x="0px" viewBox="0 0 213.735 250.15198"><g transform="translate(-320.41 -163.85)"><path d="m489.87 301.83c-1.792-3.478-4.045-6.346-6.755-8.598-2.714-2.252-5.655-3.966-8.83-5.143-3.171-1.173-6.14-1.919-8.902-2.227v-0.307c2.763-0.615 5.477-1.56 8.138-2.838 2.661-1.281 5.037-2.945 7.136-4.993 2.1-2.046 3.764-4.501 4.993-7.369 1.229-2.864 1.844-6.245 1.844-10.135 0-5.011-0.975-9.157-2.92-12.433-1.945-3.272-4.505-5.884-7.676-7.83-3.175-1.942-6.78-3.325-10.821-4.146-4.048-0.817-8.114-1.229-12.208-1.229h-29.629v29.359l3.377-0.015v-26.271h25.334c4.089 0 8.006 0.382 11.739 1.147 3.737 0.772 7.039 2.024 9.902 3.763 2.868 1.743 5.169 4.093 6.912 7.062 1.739 2.969 2.608 6.657 2.608 11.057 0 4.198-0.896 7.804-2.684 10.821-1.791 3.021-4.123 5.477-6.986 7.373-2.867 1.893-6.117 3.299-9.753 4.221-3.632 0.922-7.29 1.379-10.975 1.379h-15.45l-0.123 3.073h19.565c3.478 0 7.062 0.487 10.745 1.454 3.688 0.975 7.062 2.534 10.136 4.686 3.069 2.151 5.6 4.963 7.598 8.441 1.997 3.485 2.994 7.676 2.994 12.594 0 4.505-0.847 8.365-2.533 11.589s-3.992 5.862-6.908 7.909c-2.92 2.046-6.425 3.553-10.518 4.527-4.097 0.975-8.497 1.458-13.204 1.458h-20.023l-0.123 3.069h21.683c3.786 0 7.751-0.435 11.897-1.304 4.145-0.87 7.931-2.38 11.364-4.528 3.426-2.151 6.24-5.09 8.44-8.83 2.2-3.733 3.303-8.52 3.303-14.355 0.001-4.803-0.896-8.948-2.687-12.431z"/><polygon points="378.53 264.87 390.51 236.73 420.44 309.2 369.86 309.2 366.35 309.2 366.21 309.2 364.96 312.11 368.9 312.11 421.52 312.11 434.42 343.28 438.1 343.28 392.81 234.58 388.51 234.58 375.37 264.88"/><polygon points="400.01 264.83 433.13 345.2 440.98 345.2 407.49 264.82" stroke-miterlimit="10" stroke-width="2.8786"/><path d="m482 279.1c2.268-2.215 4.09-4.902 5.409-7.983 0.779-1.817 1.308-3.856 1.63-6.053h-7.282c-0.39 2.017-1.027 3.861-1.979 5.469-1.63 2.748-3.781 5.019-6.394 6.75-2.673 1.762-5.754 3.096-9.165 3.962-3.452 0.873-6.99 1.319-10.506 1.319h-20.36l0.016 6.911h24.34c3.291 0 6.736 0.469 10.252 1.391 3.455 0.915 6.66 2.396 9.523 4.4 2.826 1.982 5.195 4.614 7.035 7.826 1.818 3.172 2.74 7.088 2.74 11.639 0 4.172-0.779 7.77-2.316 10.701-1.533 2.934-3.658 5.367-6.308 7.226-2.695 1.894-6.017 3.317-9.861 4.231-3.917 0.934-8.209 1.406-12.759 1.406h-22.624l0.007 6.908h24.153c3.906 0 8.04-0.454 12.294-1.346 4.345-0.911 8.377-2.52 11.987-4.779 3.677-2.309 6.731-5.502 9.077-9.482 2.365-4.021 3.564-9.18 3.564-15.33 0-5.094-0.974-9.569-2.9-13.311-1.9-3.695-4.337-6.787-7.234-9.197-2.863-2.381-6.023-4.217-9.389-5.465-0.907-0.338-1.807-0.641-2.688-0.911 0.701-0.288 1.398-0.6 2.088-0.933 2.837-1.365 5.409-3.164 7.65-5.349z" stroke-miterlimit="10" stroke-width="2.8786"/><polygon points="326.18 269.39 326.18 207.27 326.2 207.27 326.2 167.69 528.35 167.69 528.35 265.55 528.32 265.55 528.32 269.39 532.19 269.39 532.19 163.85 322.37 163.85 322.37 269.39"/><polygon points="526.4 406.25 328.16 406.25 328.16 273.27 328.17 273.27 328.17 263.32 320.41 263.32 320.41 414 534.15 414 534.15 263.32 526.38 263.32 526.38 273.27 526.4 273.27"/></g></svg>
