<?xml version="1.0" encoding="UTF-8" standalone="no"?>
<svg
   xmlns:dc="http://purl.org/dc/elements/1.1/"
   xmlns:cc="http://creativecommons.org/ns#"
   xmlns:rdf="http://www.w3.org/1999/02/22-rdf-syntax-ns#"
   xmlns:svg="http://www.w3.org/2000/svg"
   xmlns="http://www.w3.org/2000/svg"
   version="1.1"
   id="Calque_1"
   x="0px"
   y="0px"
   viewBox="0 0 138 162"
   enable-background="new 0 0 250 250"
   xml:space="preserve"><metadata
     id="metadata37"><rdf:RDF><cc:Work
         rdf:about=""><dc:format>image/svg+xml</dc:format><dc:type
           rdf:resource="http://purl.org/dc/dcmitype/StillImage" /><dc:title></dc:title></cc:Work></rdf:RDF></metadata><defs
     id="defs35" /><g
     id="g4166"
     transform="translate(-56.316,-44.5085)"><g
       id="g3"><path
         id="path5"
         transform="translate(56.316,44.5085)"
         d="M 67.044922 46.007812 L 67.044922 64.914062 L 69.220703 64.904297 L 69.220703 47.988281 L 85.533203 47.988281 C 88.167203 47.988281 90.686797 48.234562 93.091797 48.726562 C 95.497797 49.224564 97.62475 50.031391 99.46875 51.150391 C 101.31575 52.273391 102.79597 53.786264 103.91797 55.697266 C 105.03897 57.608266 105.59961 59.982406 105.59961 62.816406 C 105.59961 63.469476 105.56542 64.100374 105.49805 64.708984 L 103.31445 64.708984 L 103.16992 65.460938 C 102.92992 66.705938 102.53681 67.789594 102.00781 68.683594 C 101.02981 70.331594 99.741734 71.694469 98.177734 72.730469 C 96.540734 73.809469 94.650547 74.62525 92.560547 75.15625 C 90.408547 75.70025 88.208484 75.976562 86.021484 75.976562 L 71.984375 75.976562 L 71.998047 82.28125 L 88.595703 82.28125 C 90.630703 82.28125 92.773984 82.571531 94.958984 83.144531 C 97.079984 83.705531 99.04387 84.613797 100.79688 85.841797 C 102.50687 87.041797 103.93969 88.637031 105.05469 90.582031 C 106.14369 92.482031 106.69727 94.847234 106.69727 97.615234 C 106.69727 100.14823 106.23055 102.32313 105.31055 104.07812 C 104.39255 105.83414 103.12411 107.28739 101.53711 108.40039 C 99.900108 109.55039 97.869859 110.42042 95.505859 110.98242 C 93.054859 111.56642 90.362859 111.86133 87.505859 111.86133 L 76.583984 111.86133 L 56.873047 64.554688 L 54.533203 64.556641 L 46.806641 46.009766 L 44.037109 46.009766 L 35.578125 65.517578 L 37.607422 65.509766 L 45.324219 47.394531 L 52.414062 64.556641 L 50.060547 64.558594 L 62.214844 94.054688 L 32.03125 94.054688 L 29.765625 94.054688 L 29.677734 94.054688 L 28.871094 95.931641 L 31.412109 95.931641 L 62.988281 95.931641 L 72.015625 117.8418 L 72.015625 118.16406 L 72.148438 118.16406 L 79.210938 118.16406 L 88.496094 118.16406 C 91.074094 118.16406 93.801564 117.8663 96.601562 117.2793 C 99.505562 116.6703 102.20309 115.59508 104.62109 114.08008 C 107.11309 112.51508 109.18444 110.3542 110.77344 107.6582 C 112.38244 104.9242 113.19531 101.44441 113.19531 97.316406 C 113.19531 93.885406 112.53161 90.861219 111.22461 88.324219 C 109.94561 85.838219 108.29998 83.748328 106.33398 82.111328 C 104.52798 80.609328 102.54278 79.426797 100.42578 78.591797 C 102.06178 77.722797 103.55681 76.628936 104.88281 75.335938 C 106.43281 73.822936 107.67527 71.994438 108.57227 69.898438 C 109.08527 68.699438 109.4605 67.309531 109.6875 65.769531 L 109.8418 64.708984 L 107.65234 64.708984 C 107.72604 64.006004 107.77539 63.281778 107.77539 62.517578 C 107.77539 59.290578 107.14848 56.621718 105.89648 54.511719 C 104.64348 52.404719 102.99514 50.723703 100.95312 49.470703 C 98.90813 48.220703 96.587328 47.329781 93.986328 46.800781 C 91.379328 46.274781 88.76 46.007813 86.125 46.007812 L 67.044922 46.007812 z " /></g><g
       id="g7" /><g
       id="g11"><g
         id="g13" /></g><g
       id="g17"><g
         id="g19" /></g><g
       id="g23"><g
         id="g25"><polygon
           style="fill:#231f20"
           id="polygon27"
           points="190.398,110.46 190.378,110.46 190.378,112.932 192.87,112.932 192.87,44.97 57.762,44.97 57.762,112.932 60.217,112.932 60.217,72.928 60.233,72.928 60.233,47.441 190.398,47.441 " /></g><g
         id="g29"><polygon
           style="fill:#231f20"
           id="polygon31"
           points="56.502,109.022 56.502,206.047 194.13,206.047 194.13,109.022 189.13,109.022 189.13,115.43 189.14,115.43 189.14,201.057 61.494,201.057 61.494,115.43 61.5,115.43 61.5,109.022 " /></g></g></g></svg>