<svg xmlns="http://www.w3.org/2000/svg" viewBox="0 0 41 41" version="1.1" y="0px" x="0px"><path d="m20.5 1c-10.769 0-19.5 8.7289-19.5 19.5s8.7309 19.5 19.5 19.5c10.771 0 19.5-8.729 19.5-19.5 0.001-10.771-8.729-19.5-19.5-19.5zm0 37.321c-9.8436 0-17.822-7.9784-17.822-17.821 0-9.8436 7.9784-17.822 17.822-17.822 9.8426 0 17.821 7.9784 17.821 17.822 0.000998 9.8426-7.9774 17.821-17.821 17.821z"/><path d="m13.137 14.118 7.4855 0.003v0.003l0.002-0.003 7.4884-0.003c1.0528 0 1.427 0.66462 0.80333 1.3512-1.0598 0.965-4.4218 4.0097-5.6692 5.1244-0.61872 0.55585-1.0039 0.85922-1.3542 1.0428-0.60973 0.31634-1.1177 0.33331-1.1995 0.33331-0.01597 0-0.01597-0.002-0.01597-0.002h-0.05289l-0.002-0.005v0.005h-0.05089s0 0.002-0.01696 0.002c-0.08083 0-0.58978-0.01696-1.1985-0.33331-0.35227-0.18362-0.73547-0.48699-1.3552-1.0428-1.2494-1.1147-4.6064-4.1594-5.6682-5.1244-0.61472-0.60375-0.25248-1.3512 0.80433-1.3512zm-2.5896 3.5736c0-0.57481 0.16266-1.1117 0.44408-1.5687 0.88516 0.80333 3.9678 3.6025 5.5495 5.0246l-5.9936 4.2152v-7.6711zm16.75 10.964h-13.722c-1.3093 0-2.424-0.83527-2.8451-1.9988l6.7071-4.7122c0.46004 0.39917 0.84624 0.69556 1.2783 0.92009 0.87219 0.45206 1.6027 0.48998 1.8392 0.49198 0.02295 0 0.03992-0.002 0.05189-0.002h0.003c0.01 0 0.02395 0.002 0.0489 0.002 0.23551-0.002 0.96799-0.03792 1.8422-0.49198 0.41713-0.21755 0.79236-0.50096 1.2354-0.88317l6.4566 4.5356c-0.38021 1.2374-1.5308 2.1386-2.895 2.1386zm3.0277-3.4678-5.6942-4.0027c1.455-1.3083 4.2552-3.849 5.3669-4.8589 0.20458 0.40915 0.32732 0.87518 0.32732 1.3642v7.4974z"/></svg>
