<?xml version="1.0" encoding="UTF-8" standalone="no"?>
<svg
   xmlns:dc="http://purl.org/dc/elements/1.1/"
   xmlns:cc="http://creativecommons.org/ns#"
   xmlns:rdf="http://www.w3.org/1999/02/22-rdf-syntax-ns#"
   xmlns:svg="http://www.w3.org/2000/svg"
   xmlns="http://www.w3.org/2000/svg"
   id="svg2"
   x="0px"
   y="0px"
   version="1.1"
   viewBox="0 0 40 40"
   xml:space="preserve"
   enable-background="new 0 0 40 40"><metadata
     id="metadata14"><rdf:RDF><cc:Work
         rdf:about=""><dc:format>image/svg+xml</dc:format><dc:type
           rdf:resource="http://purl.org/dc/dcmitype/StillImage" /><dc:title></dc:title></cc:Work></rdf:RDF></metadata><defs
     id="defs12" /><g
     id="g4"
     transform="translate(-28.77 -29.46)"><path
       id="path6"
       transform="translate(28.77,29.46)"
       d="M 20.001953 0.45898438 C 9.2099531 0.45898438 0.4609375 9.206 0.4609375 20 C 0.4609375 30.793 9.2099531 39.539062 20.001953 39.539062 C 30.794953 39.539062 39.541016 30.793 39.541016 20 C 39.542016 9.206 30.794953 0.45898438 20.001953 0.45898438 z M 12.621094 13.603516 L 20.123047 13.607422 L 20.125 13.607422 L 27.628906 13.603516 C 28.683906 13.603516 29.058594 14.269031 28.433594 14.957031 C 27.371594 15.924031 24.003906 18.97675 22.753906 20.09375 C 22.133906 20.65075 21.747484 20.954672 21.396484 21.138672 C 20.785484 21.455672 20.275359 21.472656 20.193359 21.472656 C 20.177359 21.472656 20.177734 21.470703 20.177734 21.470703 L 20.125 21.470703 L 20.123047 21.464844 L 20.123047 21.470703 L 20.072266 21.470703 C 20.072266 21.470703 20.071688 21.472656 20.054688 21.472656 C 19.973687 21.472656 19.463516 21.455672 18.853516 21.138672 C 18.500516 20.954672 18.117094 20.65075 17.496094 20.09375 C 16.244094 18.97675 12.880406 15.924031 11.816406 14.957031 C 11.200406 14.352031 11.562094 13.603516 12.621094 13.603516 z M 10.472656 15.613281 C 11.359656 16.418281 14.448203 19.223437 16.033203 20.648438 L 10.027344 24.871094 L 10.027344 17.185547 C 10.027344 16.609547 10.190656 16.071281 10.472656 15.613281 z M 29.517578 15.816406 C 29.722578 16.226406 29.845703 16.693594 29.845703 17.183594 L 29.845703 24.697266 L 24.140625 20.685547 C 25.598625 19.374547 28.403578 16.828406 29.517578 15.816406 z M 16.931641 21.447266 C 17.392641 21.847266 17.779891 22.144141 18.212891 22.369141 C 19.086891 22.822141 19.817688 22.859328 20.054688 22.861328 C 20.077688 22.861328 20.095422 22.859375 20.107422 22.859375 L 20.109375 22.859375 C 20.119375 22.859375 20.133203 22.861328 20.158203 22.861328 C 20.394203 22.859328 21.129859 22.824141 22.005859 22.369141 C 22.423859 22.151141 22.798187 21.867375 23.242188 21.484375 L 29.712891 26.029297 C 29.331891 27.269297 28.1795 28.171875 26.8125 28.171875 L 13.060547 28.171875 C 11.748547 28.171875 10.632937 27.335922 10.210938 26.169922 L 16.931641 21.447266 z "
       style="fill:#231f20" /></g></svg>