<svg xmlns="http://www.w3.org/2000/svg" height="100%" viewBox="0 0 39.081001 39.081001" width="100%" version="1.1" y="0px" x="0px" xmlns:cc="http://creativecommons.org/ns#" xmlns:dc="http://purl.org/dc/elements/1.1/"><path d="m19.541 0c-10.792 0-19.541 8.747-19.541 19.541 0 10.793 8.749 19.54 19.541 19.54 10.793 0 19.54-8.747 19.54-19.54 0.001-10.794-8.747-19.541-19.54-19.541zm0 37.399c-9.864 0-17.859-7.995-17.859-17.858 0-9.864 7.995-17.859 17.859-17.859 9.863 0 17.858 7.995 17.858 17.859 0.001 9.863-7.994 17.858-17.858 17.858z"/><path d="m12.162 13.145 7.501 0.003v0.003l0.002-0.003 7.504-0.003c1.055 0 1.43 0.666 0.805 1.354-1.062 0.967-4.431 4.018-5.681 5.135-0.62 0.557-1.006 0.861-1.357 1.045-0.611 0.317-1.12 0.334-1.202 0.334-0.016 0-0.016-0.002-0.016-0.002h-0.053l-0.002-0.005v0.005h-0.051s0 0.002-0.017 0.002c-0.081 0-0.591-0.017-1.201-0.334-0.353-0.184-0.737-0.488-1.358-1.045-1.252-1.117-4.616-4.168-5.68-5.135-0.616-0.605-0.253-1.354 0.806-1.354zm-2.595 3.581c0-0.576 0.163-1.114 0.445-1.572 0.887 0.805 3.976 3.61 5.561 5.035l-6.006 4.224v-7.687zm16.785 10.987h-13.751c-1.312 0-2.429-0.837-2.851-2.003l6.721-4.722c0.461 0.4 0.848 0.697 1.281 0.922 0.874 0.453 1.606 0.491 1.843 0.493 0.023 0 0.04-0.002 0.052-0.002h0.003c0.01 0 0.024 0.002 0.049 0.002 0.236-0.002 0.97-0.038 1.846-0.493 0.418-0.218 0.794-0.502 1.238-0.885l6.47 4.545c-0.381 1.24-1.534 2.143-2.901 2.143zm3.034-3.475-5.706-4.011c1.458-1.311 4.264-3.857 5.378-4.869 0.205 0.41 0.328 0.877 0.328 1.367v7.513z"/></svg>
