<?xml version="1.0" encoding="UTF-8" standalone="no"?>
<svg
   xmlns:dc="http://purl.org/dc/elements/1.1/"
   xmlns:cc="http://creativecommons.org/ns#"
   xmlns:rdf="http://www.w3.org/1999/02/22-rdf-syntax-ns#"
   xmlns:svg="http://www.w3.org/2000/svg"
   xmlns="http://www.w3.org/2000/svg"
   enable-background="new 0 0 40 40"
   xml:space="preserve"
   viewBox="0 0 40 40"
   version="1.1"
   y="0px"
   x="0px"
   id="svg2"><metadata
     id="metadata14"><rdf:RDF><cc:Work
         rdf:about=""><dc:format>image/svg+xml</dc:format><dc:type
           rdf:resource="http://purl.org/dc/dcmitype/StillImage" /><dc:title></dc:title></cc:Work></rdf:RDF></metadata><defs
     id="defs12" /><g
     transform="translate(-28.464 -29.46)"
     id="g4"><path
       d="M 20.001953 0.45898438 C 9.2099531 0.45898438 0.4609375 9.206 0.4609375 20 C 0.4609375 30.793 9.2099531 39.539062 20.001953 39.539062 C 30.794953 39.539062 39.541016 30.793 39.541016 20 C 39.541016 9.206 30.794953 0.45898438 20.001953 0.45898438 z M 21.279297 9.6210938 C 25.832297 9.6210938 28.827125 12.898922 28.828125 16.419922 C 28.828125 21.075922 26.225578 24.552734 22.392578 24.552734 C 21.106578 24.552734 19.897422 23.861219 19.482422 23.074219 C 19.482422 23.074219 18.791578 25.811937 18.642578 26.335938 C 18.125578 28.200938 16.608187 30.067703 16.492188 30.220703 C 16.409188 30.329703 16.225031 30.294344 16.207031 30.152344 C 16.174031 29.914344 15.784188 27.563578 16.242188 25.642578 C 16.469187 24.681578 17.777344 19.175781 17.777344 19.175781 C 17.777344 19.175781 17.398438 18.419828 17.398438 17.298828 C 17.398438 15.539828 18.421312 14.226562 19.695312 14.226562 C 20.778312 14.226562 21.302734 15.036813 21.302734 16.007812 C 21.302734 17.095813 20.607953 18.718703 20.251953 20.220703 C 19.949953 21.478703 20.885766 22.501953 22.134766 22.501953 C 24.391766 22.501953 25.912109 19.617266 25.912109 16.197266 C 25.912109 13.595266 24.147219 11.646484 20.949219 11.646484 C 17.336219 11.646484 15.080078 14.332031 15.080078 17.332031 C 15.080078 18.364031 15.385188 19.095203 15.867188 19.658203 C 16.089188 19.917203 16.120063 20.022312 16.039062 20.320312 C 15.982063 20.537312 15.850875 21.063437 15.796875 21.273438 C 15.717875 21.574437 15.473266 21.674312 15.197266 21.570312 C 13.534266 20.892312 12.757812 19.078109 12.757812 17.037109 C 12.757812 13.666109 15.612297 9.6210938 21.279297 9.6210938 z "
       transform="translate(28.464,29.46)"
       id="path6" /></g></svg>