<svg xmlns="http://www.w3.org/2000/svg" viewBox="0 0 41 41" version="1.1" y="0px" x="0px"><path d="m20.5 1c-10.769 0-19.5 8.7289-19.5 19.5s8.7309 19.5 19.5 19.5c10.771 0 19.5-8.729 19.5-19.5s-8.729-19.5-19.5-19.5zm0 37.321c-9.8436 0-17.821-7.9784-17.821-17.821 0-9.8436 7.9774-17.822 17.821-17.822 9.8426 0 17.821 7.9784 17.821 17.822 0 9.8426-7.9784 17.821-17.821 17.821z"/><path d="m21.777 10.143c-5.6553 0-8.5053 4.0376-8.5053 7.4016 0 2.0368 0.77539 3.846 2.4349 4.5226 0.27543 0.10378 0.51992 0.004 0.59876-0.29638 0.05389-0.20956 0.18462-0.73348 0.2415-0.95003 0.08083-0.29738 0.05089-0.40316-0.17065-0.66163-0.481-0.56183-0.78537-1.2903-0.78537-2.3202 0-2.9938 2.2513-5.6742 5.8568-5.6742 3.1914 0 4.9527 1.945 4.9527 4.5416 0 3.4129-1.5188 6.2899-3.7712 6.2899-1.2464 0-2.1805-1.0209-1.8791-2.2763 0.35526-1.4989 1.0488-3.1185 1.0488-4.2043 0-0.96899-0.52291-1.7773-1.6037-1.7773-1.2714 0-2.2922 1.3103-2.2922 3.0656 0 1.1187 0.37821 1.8741 0.37821 1.8741s-1.3043 5.4936-1.5308 6.4526c-0.45705 1.917-0.06886 4.2631-0.03593 4.5007 0.01796 0.1417 0.20158 0.17763 0.28441 0.06886 0.11576-0.15268 1.6296-2.0168 2.1455-3.8779 0.14869-0.52291 0.83826-3.2542 0.83826-3.2542 0.41414 0.78537 1.6216 1.4759 2.905 1.4759 3.8251 0 6.4227-3.4698 6.4227-8.1161-0.000998-3.5137-2.9898-6.7849-7.5334-6.7849z"/></svg>
