<svg xmlns:rdf="http://www.w3.org/1999/02/22-rdf-syntax-ns#" xmlns="http://www.w3.org/2000/svg" enable-background="new 0 0 40 40" xml:space="preserve" viewBox="0 0 40 40" version="1.1" y="0px" x="0px" xmlns:cc="http://creativecommons.org/ns#" xmlns:dc="http://purl.org/dc/elements/1.1/"><g transform="translate(-28.464 -29.46)"><path d="m48.465 29.919c-10.792 0-19.541 8.747-19.541 19.541 0 10.793 8.749 19.54 19.541 19.54 10.793 0 19.54-8.747 19.54-19.54 0-10.794-8.747-19.541-19.54-19.541zm0 37.399c-9.864 0-17.858-7.995-17.858-17.858 0-9.864 7.994-17.859 17.858-17.859 9.863 0 17.858 7.995 17.858 17.859 0 9.863-7.995 17.858-17.858 17.858z"/><path d="m49.744 39.081c-5.667 0-8.523 4.046-8.523 7.417 0 2.041 0.777 3.854 2.44 4.532 0.276 0.104 0.521 0.004 0.6-0.297 0.054-0.21 0.185-0.735 0.242-0.952 0.081-0.298 0.051-0.404-0.171-0.663-0.482-0.563-0.787-1.293-0.787-2.325 0-3 2.256-5.686 5.869-5.686 3.198 0 4.963 1.949 4.963 4.551 0 3.42-1.522 6.303-3.779 6.303-1.249 0-2.185-1.023-1.883-2.281 0.356-1.502 1.051-3.125 1.051-4.213 0-0.971-0.524-1.781-1.607-1.781-1.274 0-2.297 1.313-2.297 3.072 0 1.121 0.379 1.878 0.379 1.878s-1.307 5.505-1.534 6.466c-0.458 1.921-0.069 4.272-0.036 4.51 0.018 0.142 0.202 0.178 0.285 0.069 0.116-0.153 1.633-2.021 2.15-3.886 0.149-0.524 0.84-3.261 0.84-3.261 0.415 0.787 1.625 1.479 2.911 1.479 3.833 0 6.436-3.477 6.436-8.133-0.001-3.521-2.996-6.799-7.549-6.799z"/></g></svg>
