<svg xmlns="http://www.w3.org/2000/svg" viewBox="0 0 41 41" version="1.1" y="0px" x="0px"><path d="m20.5 1c-10.77 0-19.5 8.7289-19.5 19.5s8.7299 19.5 19.5 19.5 19.5-8.729 19.5-19.5-8.73-19.5-19.5-19.5zm0 37.321c-9.8426 0-17.821-7.9784-17.821-17.821 0-9.8436 7.9784-17.822 17.821-17.822 9.8436 0 17.822 7.9784 17.822 17.822 0.000998 9.8426-7.9774 17.821-17.822 17.821z"/><path d="m29.679 21.984c0.13771-0.63169 0.21156-1.2883 0.21156-1.9599 0-5.0435-4.0895-9.129-9.131-9.129-0.5319 0-1.0518 0.04491-1.5608 0.13372-0.81531-0.51593-1.7793-0.81431-2.8171-0.81431-2.9229 0-5.294 2.3711-5.294 5.297 0 0.97797 0.26545 1.8911 0.72749 2.6784-0.11975 0.59277-0.18462 1.2085-0.18462 1.8362 0 5.0435 4.0865 9.131 9.129 9.131 0.57281 0 1.1307-0.05389 1.6725-0.15168 0.74645 0.39917 1.5997 0.6277 2.5038 0.6277 2.9219 0 5.293-2.3711 5.293-5.295-0.002-0.84824-0.19958-1.6456-0.54986-2.3541zm-4.2362 2.405c-0.42312 0.59776-1.0458 1.0698-1.8532 1.4051-0.80134 0.3343-1.7623 0.50395-2.8541 0.50395-1.3103 0-2.412-0.23052-3.2702-0.68558-0.61173-0.33131-1.1177-0.77938-1.5009-1.3362-0.3872-0.56084-0.58578-1.1137-0.58578-1.6496 0-0.3343 0.12973-0.6237 0.38121-0.85922 0.24848-0.23751 0.56982-0.35726 0.95402-0.35726 0.31335 0 0.58279 0.0948 0.80333 0.28142 0.20857 0.17963 0.39119 0.44108 0.53589 0.78238 0.15967 0.37023 0.3373 0.68358 0.52391 0.92708 0.17863 0.2385 0.43709 0.43709 0.76441 0.59377 0.33231 0.15568 0.77739 0.23751 1.3252 0.23751 0.75743 0 1.3751-0.16266 1.8402-0.479 0.45406-0.31036 0.6756-0.68358 0.6756-1.1406 0-0.35826-0.11376-0.64466-0.35227-0.8672-0.24848-0.22952-0.5768-0.41115-0.97298-0.53389-0.41614-0.13073-0.97897-0.27044-1.6745-0.41713-0.94903-0.20258-1.7524-0.44308-2.393-0.71452-0.65564-0.27942-1.1845-0.66462-1.5687-1.1486-0.39218-0.49098-0.59277-1.1067-0.59277-1.8292 0-0.69057 0.20956-1.3133 0.62071-1.8502 0.40915-0.5319 1.0039-0.94703 1.7723-1.2275 0.75842-0.28241 1.6576-0.42312 2.6774-0.42312 0.8173 0 1.5328 0.0948 2.1316 0.27942 0.60275 0.18761 1.1097 0.44009 1.5079 0.75244 0.40316 0.31435 0.70154 0.64666 0.89015 0.99793 0.18861 0.35027 0.28341 0.70054 0.28341 1.0398 0 0.32632-0.12474 0.6237-0.37522 0.88117-0.24848 0.26146-0.56483 0.39219-0.93606 0.39219-0.3383 0-0.60275-0.08183-0.78537-0.24349-0.17065-0.15069-0.34828-0.3872-0.54487-0.72749-0.22852-0.4311-0.50395-0.7704-0.8183-1.0119-0.30736-0.23352-0.8203-0.35327-1.5238-0.35327-0.65464 0-1.1895 0.13173-1.5827 0.39218-0.38221 0.24948-0.56582 0.53688-0.56582 0.87618 0 0.20757 0.05888 0.37921 0.18162 0.5289 0.12774 0.15867 0.31036 0.29638 0.54188 0.41314 0.2395 0.11975 0.48599 0.21655 0.73447 0.2874 0.25148 0.06985 0.67959 0.17364 1.2624 0.30736 0.73847 0.15867 1.4171 0.3353 2.0178 0.5289 0.60874 0.1946 1.1336 0.4361 1.5608 0.71452 0.43809 0.28341 0.78337 0.64965 1.0299 1.0837 0.24649 0.44009 0.37023 0.98196 0.37023 1.6097 0.000998 0.75244-0.21256 1.439-0.63568 2.0388z"/></svg>
