<svg xmlns:rdf="http://www.w3.org/1999/02/22-rdf-syntax-ns#" xmlns="http://www.w3.org/2000/svg" enable-background="new 0 0 40 40" xml:space="preserve" viewBox="0 0 40 40" version="1.1" y="0px" x="0px" xmlns:cc="http://creativecommons.org/ns#" xmlns:dc="http://purl.org/dc/elements/1.1/"><g transform="translate(-29.4 -29.686)"><path d="m49.399 30.146c-10.792 0-19.54 8.747-19.54 19.541 0 10.793 8.748 19.54 19.54 19.54 10.793 0 19.541-8.747 19.541-19.54 0-10.794-8.748-19.541-19.541-19.541zm0 37.399c-9.863 0-17.858-7.995-17.858-17.858 0-9.864 7.995-17.859 17.858-17.859 9.864 0 17.859 7.995 17.859 17.859 0.001 9.863-7.994 17.858-17.859 17.858z"/><path d="m58.598 51.174c0.138-0.633 0.212-1.291 0.212-1.964 0-5.054-4.098-9.148-9.15-9.148-0.533 0-1.054 0.045-1.564 0.134-0.817-0.517-1.783-0.816-2.823-0.816-2.929 0-5.305 2.376-5.305 5.308 0 0.98 0.266 1.895 0.729 2.684-0.12 0.594-0.185 1.211-0.185 1.84 0 5.054 4.095 9.15 9.148 9.15 0.574 0 1.133-0.054 1.676-0.152 0.748 0.4 1.603 0.629 2.509 0.629 2.928 0 5.304-2.376 5.304-5.306-0.002-0.85-0.2-1.649-0.551-2.359zm-4.245 2.41c-0.424 0.599-1.048 1.072-1.857 1.408-0.803 0.335-1.766 0.505-2.86 0.505-1.313 0-2.417-0.231-3.277-0.687-0.613-0.332-1.12-0.781-1.504-1.339-0.388-0.562-0.587-1.116-0.587-1.653 0-0.335 0.13-0.625 0.382-0.861 0.249-0.238 0.571-0.358 0.956-0.358 0.314 0 0.584 0.095 0.805 0.282 0.209 0.18 0.392 0.442 0.537 0.784 0.16 0.371 0.338 0.685 0.525 0.929 0.179 0.239 0.438 0.438 0.766 0.595 0.333 0.156 0.779 0.238 1.328 0.238 0.759 0 1.378-0.163 1.844-0.48 0.455-0.311 0.677-0.685 0.677-1.143 0-0.359-0.114-0.646-0.353-0.869-0.249-0.23-0.578-0.412-0.975-0.535-0.417-0.131-0.981-0.271-1.678-0.418-0.951-0.203-1.756-0.444-2.398-0.716-0.657-0.28-1.187-0.666-1.572-1.151-0.393-0.492-0.594-1.109-0.594-1.833 0-0.692 0.21-1.316 0.622-1.854 0.41-0.533 1.006-0.949 1.776-1.23 0.76-0.283 1.661-0.424 2.683-0.424 0.819 0 1.536 0.095 2.136 0.28 0.604 0.188 1.112 0.441 1.511 0.754 0.404 0.315 0.703 0.648 0.892 1 0.189 0.351 0.284 0.702 0.284 1.042 0 0.327-0.125 0.625-0.376 0.883-0.249 0.262-0.566 0.393-0.938 0.393-0.339 0-0.604-0.082-0.787-0.244-0.171-0.151-0.349-0.388-0.546-0.729-0.229-0.432-0.505-0.772-0.82-1.014-0.308-0.234-0.822-0.354-1.527-0.354-0.656 0-1.192 0.132-1.586 0.393-0.383 0.25-0.567 0.538-0.567 0.878 0 0.208 0.059 0.38 0.182 0.53 0.128 0.159 0.311 0.297 0.543 0.414 0.24 0.12 0.487 0.217 0.736 0.288 0.252 0.07 0.681 0.174 1.265 0.308 0.74 0.159 1.42 0.336 2.022 0.53 0.61 0.195 1.136 0.437 1.564 0.716 0.439 0.284 0.785 0.651 1.032 1.086 0.247 0.441 0.371 0.984 0.371 1.613 0.001 0.754-0.213 1.442-0.637 2.043z"/></g></svg>