<?xml version="1.0" encoding="UTF-8" standalone="no"?>
<svg
   xmlns:dc="http://purl.org/dc/elements/1.1/"
   xmlns:cc="http://creativecommons.org/ns#"
   xmlns:rdf="http://www.w3.org/1999/02/22-rdf-syntax-ns#"
   xmlns:svg="http://www.w3.org/2000/svg"
   xmlns="http://www.w3.org/2000/svg"
   id="svg2"
   x="0px"
   y="0px"
   version="1.1"
   viewBox="0 0 40 40"
   xml:space="preserve"
   enable-background="new 0 0 40 40"><metadata
     id="metadata14"><rdf:RDF><cc:Work
         rdf:about=""><dc:format>image/svg+xml</dc:format><dc:type
           rdf:resource="http://purl.org/dc/dcmitype/StillImage" /><dc:title></dc:title></cc:Work></rdf:RDF></metadata><defs
     id="defs12" /><g
     id="g4"
     transform="translate(-29.4 -29.686)"><path
       id="path6"
       transform="translate(29.4,29.686)"
       d="M 19.998047 0.4609375 C 9.2060469 0.4609375 0.45898438 9.2079531 0.45898438 20.001953 C 0.45898438 30.794953 9.2060469 39.541016 19.998047 39.541016 C 30.791047 39.541016 39.539062 30.794953 39.539062 20.001953 C 39.539062 9.2079531 30.791047 0.4609375 19.998047 0.4609375 z M 15.873047 9.6933594 C 16.913047 9.6933594 17.878312 9.9927656 18.695312 10.509766 C 19.205312 10.420766 19.726766 10.376953 20.259766 10.376953 C 25.311766 10.376953 29.410156 14.469437 29.410156 19.523438 C 29.410156 20.196438 29.335266 20.855281 29.197266 21.488281 C 29.548266 22.198281 29.746047 22.997656 29.748047 23.847656 C 29.748047 26.777656 27.373312 29.152344 24.445312 29.152344 C 23.539312 29.152344 22.683547 28.923437 21.935547 28.523438 C 21.392547 28.621438 20.833766 28.675781 20.259766 28.675781 C 15.206766 28.675781 11.111328 24.579391 11.111328 19.525391 C 11.111328 18.896391 11.176875 18.279547 11.296875 17.685547 C 10.833875 16.896547 10.568359 15.981953 10.568359 15.001953 C 10.568359 12.069953 12.944047 9.6933594 15.873047 9.6933594 z M 20.199219 13.087891 C 19.177219 13.087891 18.275625 13.228719 17.515625 13.511719 C 16.745625 13.792719 16.150234 14.209187 15.740234 14.742188 C 15.328234 15.280187 15.117188 15.903703 15.117188 16.595703 C 15.117188 17.319703 15.319891 17.937688 15.712891 18.429688 C 16.097891 18.914688 16.626203 19.300078 17.283203 19.580078 C 17.925203 19.852078 18.730641 20.093875 19.681641 20.296875 C 20.378641 20.443875 20.942375 20.583844 21.359375 20.714844 C 21.756375 20.837844 22.086937 21.018047 22.335938 21.248047 C 22.574938 21.471047 22.6875 21.758187 22.6875 22.117188 C 22.6875 22.575187 22.466719 22.950719 22.011719 23.261719 C 21.545719 23.578719 20.926969 23.740234 20.167969 23.740234 C 19.618969 23.740234 19.172844 23.659906 18.839844 23.503906 C 18.511844 23.346906 18.251266 23.147203 18.072266 22.908203 C 17.885266 22.664203 17.708828 22.349516 17.548828 21.978516 C 17.403828 21.636516 17.220719 21.375312 17.011719 21.195312 C 16.790719 21.008313 16.519078 20.912109 16.205078 20.912109 C 15.820078 20.912109 15.499 21.033484 15.25 21.271484 C 14.998 21.507484 14.867188 21.797812 14.867188 22.132812 C 14.867188 22.669812 15.067078 23.223156 15.455078 23.785156 C 15.839078 24.343156 16.345984 24.791047 16.958984 25.123047 C 17.818984 25.579047 18.923328 25.810547 20.236328 25.810547 C 21.330328 25.810547 22.292703 25.641641 23.095703 25.306641 C 23.904703 24.970641 24.529125 24.497437 24.953125 23.898438 C 25.377125 23.297438 25.590844 22.609469 25.589844 21.855469 C 25.589844 21.226469 25.46575 20.683188 25.21875 20.242188 C 24.97175 19.807188 24.6265 19.44025 24.1875 19.15625 C 23.7595 18.87725 23.233047 18.634453 22.623047 18.439453 C 22.021047 18.245453 21.341563 18.069156 20.601562 17.910156 C 20.017562 17.776156 19.587938 17.671563 19.335938 17.601562 C 19.086938 17.530563 18.839609 17.434453 18.599609 17.314453 C 18.367609 17.197453 18.184641 17.059391 18.056641 16.900391 C 17.933641 16.750391 17.875 16.577141 17.875 16.369141 C 17.875 16.029141 18.058406 15.742188 18.441406 15.492188 C 18.835406 15.231187 19.371344 15.099609 20.027344 15.099609 C 20.732344 15.099609 21.246688 15.219125 21.554688 15.453125 C 21.869688 15.695125 22.146 16.034797 22.375 16.466797 C 22.572 16.807797 22.750875 17.044312 22.921875 17.195312 C 23.104875 17.357312 23.368031 17.439453 23.707031 17.439453 C 24.079031 17.439453 24.397484 17.308875 24.646484 17.046875 C 24.897484 16.788875 25.021484 16.491062 25.021484 16.164062 C 25.021484 15.824062 24.927281 15.472094 24.738281 15.121094 C 24.549281 14.769094 24.249703 14.436094 23.845703 14.121094 C 23.446703 13.808094 22.939937 13.555188 22.335938 13.367188 C 21.735938 13.182187 21.018219 13.087891 20.199219 13.087891 z " /></g></svg>